<?xml version="1.0" encoding="utf-8"?>
<svg version="1.0" xmlns="http://www.w3.org/2000/svg" width="150.000000pt" height="150.000000pt" viewBox="0 0 150.000000 150.000000" preserveAspectRatio="xMidYMid meet">
  <g transform="translate(0.000000,150.000000) scale(0.050000,-0.050000)" fill="#000000" stroke="none">
    <path d="M1542 2778 c-412 -237 -507 -584 -269 -980 131 -216 151 -303 88 -383 -115 -145 -525 -111 -682 56 -92 98 -113 -20 -30 -166 52 -92 40 -104 -50 -51 -75 44 -88 27 -50 -64 84 -201 274 -372 492 -441 60 -20 112 -38 116 -41 4 -2 -17 -39 -45 -81 -69 -101 -66 -123 23 -160 76 -31 144 -97 145 -141 0 -17 -60 -26 -205 -30 -350 -10 -164 -56 284 -70 607 -19 852 42 339 84 -195 16 -255 101 -158 225 79 100 28 118 -81 27 -67 -56 -68 -60 -42 -125 52 -132 53 -141 2 -134 -56 8 -131 170 -111 242 27 101 75 133 232 154 489 67 663 390 441 821 -133 258 -116 412 57 498 180 90 321 58 322 -73 0 -69 33 -54 89 42 140 239 -12 432 -342 433 -126 0 -152 7 -207 53 -72 60 -55 86 56 87 85 0 66 32 -37 63 -87 26 -100 47 -39 63 22 6 40 20 40 32 0 28 -140 29 -211 1 -70 -26 -82 -12 -42 50 62 93 27 96 -125 9z m194 -269 c41 -17 99 -55 130 -85 48 -46 79 -56 200 -64 226 -16 290 -200 79 -227 -63 -9 -133 -39 -205 -88 -219 -150 -490 -87 -562 130 -73 223 142 424 358 334z m5 -978 c59 -134 79 -205 78 -280 l-1 -101 -42 80 c-23 44 -72 114 -109 155 -41 46 -67 96 -67 130 0 30 -6 90 -13 132 -26 156 63 89 154 -116z m-172 -310 c72 -79 -14 -265 -148 -320 -78 -33 -129 -15 -56 20 30 14 55 33 55 43 0 9 -26 4 -58 -13 -78 -40 -222 -63 -222 -34 0 11 32 27 70 34 88 17 91 49 5 49 -36 0 -85 6 -110 13 -79 21 -48 42 50 35 l95 -7 -76 19 c-94 24 -154 55 -154 80 0 10 23 11 55 1 104 -33 165 -42 165 -24 0 10 -35 23 -78 30 -42 7 -99 31 -125 54 l-47 42 60 -14 c139 -31 264 -32 331 -2 95 41 147 40 188 -6z" style="fill: rgb(255, 255, 255);"/>
    <path d="M1573 2379 c-123 -97 -8 -294 139 -238 159 60 125 279 -42 279 -25 0 -68 -19 -97 -41z m163 -43 c32 -32 30 -47 -7 -85 -43 -42 -83 -39 -108 8 -43 79 50 142 115 77z" style="fill: rgb(255, 255, 255);"/>
  </g>
</svg>